<svg width="1350" height="1010" viewBox="0 0 1350 1010" fill="none" xmlns="http://www.w3.org/2000/svg">
<path d="M1350 0H0V1010H1350V0Z" fill="#FAFAFA"/>
<path d="M1350 500.792C1294.95 484.463 1239.9 468.135 1185.3 446.42C1130.7 424.537 1076.55 397.435 1034.55 354.005C992.4 310.743 962.4 251.153 942.6 189.375C922.8 127.597 913.35 63.7983 903.75 0H1350V500.792Z" fill="#D7DDE5"/>
<path d="M1350 375.552C1308.75 363.263 1267.35 351.143 1226.4 334.815C1185.45 318.487 1144.95 298.118 1113.3 265.63C1081.8 232.973 1059.3 188.365 1044.45 142.073C1029.6 95.7817 1022.55 47.8067 1015.35 0H1350V375.552Z" fill="#91A5BB"/>
<path d="M1350 250.312C1322.4 242.232 1294.95 233.983 1267.65 223.21C1240.35 212.268 1213.35 198.802 1192.2 177.087C1171.2 155.372 1156.2 125.577 1146.3 94.7717C1136.4 63.7983 1131.6 31.9833 1126.95 0H1350V250.312Z" fill="#4C7092"/>
<path d="M1350 125.24C1336.2 121.032 1322.4 116.992 1308.75 111.605C1295.1 106.218 1281.6 99.3167 1271.1 88.5433C1260.6 77.6017 1253.1 62.7883 1248.15 47.3017C1243.2 31.9833 1240.8 15.9917 1238.4 0H1350V125.24Z" fill="#22577E"/>
<path d="M0 509.208C56.4 518.803 112.8 528.23 169.95 549.608C227.1 570.987 285.15 604.148 315.45 655.995C345.9 707.673 348.75 777.868 365.85 839.983C383.1 902.098 414.6 955.965 446.25 1010H0V509.208Z" fill="#D7DDE5"/>
<path d="M0 634.448C42.3 641.518 84.6 648.757 127.5 664.748C170.25 680.74 213.9 705.653 236.7 744.37C259.35 783.255 261.45 835.943 274.35 882.403C287.25 929.032 310.95 969.432 334.65 1010H0V634.448Z" fill="#91A5BB"/>
<path d="M0 759.688C28.2 764.402 56.4 769.115 84.9 779.888C113.55 790.493 142.5 807.158 157.8 832.913C172.95 858.837 174.3 893.85 183 924.992C191.55 955.965 207.3 983.067 223.05 1010H0V759.688Z" fill="#4C7092"/>
<path d="M0 884.76C14.1 887.117 28.2 889.642 42.45 894.86C56.7 900.247 71.25 908.495 78.9 921.457C86.4 934.418 87.15 951.925 91.5 967.412C95.7 983.067 103.65 996.533 111.6 1010H0V884.76Z" fill="#22577E"/>
</svg>
